<svg width="23" height="23" viewBox="0 0 23 23" fill="none" xmlns="http://www.w3.org/2000/svg">
<path d="M21.0852 0H1.66232C0.699925 0 0 0.70303 0 1.6697V21.1788C0 22.0576 0.787415 22.8485 1.66232 22.8485H21.0852C22.0476 22.8485 22.7475 22.1455 22.7475 21.1788V1.6697C22.7475 0.70303 21.9601 0 21.0852 0ZM6.99924 19.3333H3.49962V8.78788H6.99924V19.3333ZM5.24943 7.38182C4.11205 7.38182 3.14966 6.41515 3.14966 5.27273C3.14966 4.1303 4.11205 3.16364 5.24943 3.16364C6.3868 3.16364 7.3492 4.1303 7.3492 5.27273C7.3492 6.41515 6.3868 7.38182 5.24943 7.38182ZM19.2479 19.3333H15.7483V14.0606C15.7483 12.6545 15.3983 11.2485 13.9985 11.2485C12.5986 11.2485 12.2487 12.6545 12.2487 14.0606V19.3333H8.74905V8.78788H12.2487V10.0182H12.4236C12.8611 9.13939 13.9985 8.43636 15.3108 8.43636C18.548 8.43636 19.2479 10.5455 19.2479 13.1818V19.3333Z" fill="#888888"/>
</svg>
