<svg width="27" height="19" viewBox="0 0 27 19" fill="none" xmlns="http://www.w3.org/2000/svg">
<path d="M25.9847 4.04242C25.9847 4.04242 25.7222 2.19697 24.9348 1.40606C23.9724 0.351515 22.835 0.351515 22.3101 0.263637C18.6355 1.5714e-07 13.1236 0 13.1236 0C13.1236 0 7.61167 1.5714e-07 3.93707 0.263637C3.41213 0.351515 2.27475 0.351515 1.31236 1.40606C0.524943 2.19697 0.262474 4.04242 0.262474 4.04242C0.262474 4.04242 0 6.15151 0 8.26061V10.1939C0 12.303 0.262474 14.5 0.262474 14.5C0.262474 14.5 0.524943 16.3455 1.31236 17.1364C2.27475 18.1909 3.58711 18.1909 4.19954 18.2788C6.29932 18.3667 13.1236 18.4545 13.1236 18.4545C13.1236 18.4545 18.6355 18.4545 22.3101 18.1909C22.835 18.103 23.9724 18.103 24.9348 17.0485C25.7222 16.2576 25.9847 14.4121 25.9847 14.4121C25.9847 14.4121 26.2471 12.303 26.2471 10.1061V8.17273C26.2471 6.15151 25.9847 4.04242 25.9847 4.04242ZM10.4114 12.6545V5.27273L17.4981 8.96364L10.4114 12.6545Z" fill="#888888"/>
</svg>
