<svg width="29" height="17" viewBox="0 0 29 17" fill="none" xmlns="http://www.w3.org/2000/svg">
<path fill-rule="evenodd" clip-rule="evenodd" d="M13.9888 16.5212H15.7386C15.7386 16.5212 16.2635 16.4333 16.526 16.1697C16.7884 15.9061 16.7885 15.3788 16.7885 15.3788C16.7885 15.3788 16.7884 13.0939 17.8383 12.7424C18.8882 12.3909 20.2881 15.0273 21.6879 15.9939C22.7378 16.7848 23.6127 16.6091 23.6127 16.6091L27.4623 16.5212C27.4623 16.5212 29.4746 16.4333 28.5122 14.7636C28.4247 14.6758 27.9872 13.6212 25.625 11.4242C23.1752 9.13939 23.5252 9.57879 26.4124 5.62424C28.1622 3.25152 28.8621 1.84546 28.6871 1.14243C28.5122 0.527274 27.1998 0.703033 27.1998 0.703033H22.8253C22.8253 0.703033 22.4753 0.615153 22.3004 0.79091C22.0379 0.966668 21.9504 1.2303 21.9504 1.2303C21.9504 1.2303 21.2505 3.07576 20.3756 4.65758C18.4508 7.90909 17.6634 8.08485 17.4009 7.90909C16.701 7.4697 16.8759 5.97576 16.8759 5.00909C16.8759 1.84546 17.4009 0.527273 15.9135 0.175758C15.4761 0.0878794 15.1261 0 13.9013 0C12.3264 0 11.0141 1.33569e-06 10.3141 0.351516C9.78921 0.615153 9.43925 1.14243 9.70172 1.14243C9.96419 1.14243 10.6641 1.31818 11.0141 1.75758C11.4515 2.37273 11.4515 3.69091 11.4515 3.69091C11.4515 3.69091 11.714 7.4697 10.8391 7.90909C10.2267 8.26061 9.43925 7.55758 7.68944 4.5697C6.81453 3.07576 6.11462 1.31818 6.11462 1.31818C6.11462 1.31818 6.02712 0.966668 5.76465 0.79091C5.50218 0.615153 5.06472 0.527275 5.06472 0.527275H0.952674C0.952674 0.527275 0.340241 0.527274 0.0777693 0.79091C-0.0972116 1.05455 0.0777693 1.49394 0.0777693 1.49394C0.0777693 1.49394 3.31492 9.05151 6.98952 12.9182C10.2267 16.7848 13.9888 16.5212 13.9888 16.5212Z" fill="#888888"/>
</svg>
