<svg width="39" height="25" viewBox="0 0 39 25" fill="none" xmlns="http://www.w3.org/2000/svg">
<path fill-rule="evenodd" clip-rule="evenodd" d="M12.2487 10.5455V14.7636H19.1604C18.8979 16.6091 17.0606 20.0364 12.2487 20.0364C8.04912 20.0364 4.637 16.5212 4.637 12.303C4.637 8.08485 8.04912 4.5697 12.2487 4.5697C14.6109 4.5697 16.1857 5.62424 17.1481 6.50303L20.4728 3.25152C18.373 1.2303 15.5733 0 12.2487 0C5.5119 0 0 5.53636 0 12.303C0 19.0697 5.5119 24.6061 12.2487 24.6061C19.3354 24.6061 23.9724 19.597 23.9724 12.5667C23.9724 11.7758 23.8849 11.1606 23.7974 10.5455H12.2487Z" fill="#888888"/>
<path fill-rule="evenodd" clip-rule="evenodd" d="M38.4959 10.5454H34.9963V7.03027H31.4967V10.5454H27.9971V14.0606H31.4967V17.5757H34.9963V14.0606H38.4959V10.5454Z" fill="#888888"/>
</svg>
