<svg width="16" height="27" viewBox="0 0 16 27" fill="none" xmlns="http://www.w3.org/2000/svg">
<path d="M7.8923 14.0606C4.04272 14.0606 0.893066 10.897 0.893066 7.0303C0.893066 3.16364 4.04272 0 7.8923 0C11.7419 0 14.8915 3.16364 14.8915 7.0303C14.8915 10.897 11.7419 14.0606 7.8923 14.0606ZM7.8923 3.33939C5.88002 3.33939 4.21769 5.00909 4.21769 7.0303C4.21769 9.05151 5.88002 10.7212 7.8923 10.7212C9.90458 10.7212 11.5669 9.05151 11.5669 7.0303C11.5669 5.00909 9.90458 3.33939 7.8923 3.33939Z" fill="#888888"/>
<path d="M15.4166 14.7634C14.8042 13.9725 13.7543 13.8846 12.9669 14.4119C12.9669 14.4119 11.0421 15.818 7.89246 15.818C4.74281 15.818 2.81803 14.4119 2.81803 14.4119C2.03061 13.7968 0.98071 13.9725 0.368277 14.7634C-0.244156 15.5543 -0.0691806 16.6089 0.718234 17.224C0.805724 17.3119 2.64303 18.718 5.7052 19.1574L1.06822 23.9028C0.368293 24.6058 0.368293 25.7483 1.06822 26.3634C1.41818 26.7149 1.85563 26.8907 2.29308 26.8907C2.73053 26.8907 3.16798 26.7149 3.51794 26.3634L7.89246 21.8816L12.267 26.3634C12.6169 26.7149 13.0544 26.8907 13.4918 26.8907C13.9293 26.8907 14.3667 26.7149 14.7167 26.3634C15.4166 25.6604 15.4166 24.6058 14.7167 23.9028L10.0797 19.1574C13.1419 18.6301 14.9792 17.224 15.0667 17.224C15.8541 16.6089 16.0291 15.4664 15.4166 14.7634Z" fill="#888888"/>
</svg>
