<svg width="26" height="22" viewBox="0 0 26 22" fill="none" xmlns="http://www.w3.org/2000/svg">
<path d="M25.6347 2.37273C24.6723 2.81212 23.6224 3.07576 22.5725 3.25152C23.7099 2.54849 24.4973 1.58182 24.9348 0.351516C23.8849 0.966668 22.7475 1.40606 21.6101 1.6697C20.6477 0.615153 19.2479 0 17.7606 0C14.8734 0 12.5111 2.37273 12.5111 5.36061C12.5111 5.8 12.5111 6.15152 12.6861 6.59091C8.31159 6.32727 4.37452 4.21818 1.74981 1.05455C1.22487 1.6697 0.962394 2.54849 0.962394 3.51515C0.962394 5.36061 1.92479 7.0303 3.32464 7.90909C2.44973 7.90909 1.66232 7.64545 0.874905 7.20606C0.874905 7.20606 0.874905 7.20606 0.874905 7.29394C0.874905 9.84242 2.71221 12.0394 5.16194 12.4788C4.72449 12.5667 4.28703 12.6545 3.76209 12.6545C3.41212 12.6545 3.06216 12.6545 2.79969 12.5667C3.49962 14.6758 5.42441 16.2576 7.78665 16.2576C5.94935 17.6636 3.6746 18.5424 1.22486 18.5424C0.787412 18.5424 0.349962 18.5424 0 18.4545C2.18726 20.1242 4.98695 21.003 7.96163 21.003C17.6731 21.003 23.01 12.9182 23.01 5.88788C23.01 5.62424 23.01 5.44849 23.01 5.18485C24.0599 4.39394 24.9348 3.51515 25.6347 2.37273Z" fill="#888888"/>
</svg>
