<svg width="14" height="20" viewBox="0 0 14 20" fill="none" xmlns="http://www.w3.org/2000/svg">
<rect width="14" height="20" fill="black" fill-opacity="0"/>
<path d="M7 20L6.62016 19.5592C6.34884 19.2287 0 11.6253 0 7.10744C0 3.19559 3.14728 0 7 0C10.8527 0 14 3.19559 14 7.10744C14 11.6253 7.65116 19.2287 7.37984 19.5592L7 20ZM7 0.991729C3.68992 0.991729 0.976738 3.74655 0.976738 7.10744C0.976738 10.6887 5.58915 16.6942 7 18.4022C8.35659 16.6942 13.0233 10.6336 13.0233 7.10744C13.0233 3.74655 10.3101 0.991729 7 0.991729Z" fill="#EF7C00"/>
<path d="M6.99973 9.80716C5.53462 9.80716 4.34082 8.59504 4.34082 7.10744C4.34082 5.61983 5.53462 4.40771 6.99973 4.40771C8.46485 4.40771 9.65865 5.61983 9.65865 7.10744C9.65865 8.59504 8.46485 9.80716 6.99973 9.80716ZM6.99973 5.39944C6.07725 5.39944 5.31756 6.1708 5.31756 7.10744C5.31756 8.04408 6.07725 8.81543 6.99973 8.81543C7.92221 8.81543 8.68191 8.04408 8.68191 7.10744C8.68191 6.1708 7.92221 5.39944 6.99973 5.39944Z" fill="#EF7C00"/>
</svg>
