<svg width="34" height="34" viewBox="0 0 34 34" fill="none" xmlns="http://www.w3.org/2000/svg">
<rect width="34" height="34" fill="black" fill-opacity="0.6"/>
<path d="M27.9994 21.6433C27.9994 20.979 27.4835 20.4419 26.8428 20.4419C26.2075 20.4434 25.6854 20.979 25.6854 21.6433V24.1302L21.0172 19.5228C20.5657 19.0767 19.835 19.0767 19.3835 19.5228C18.9321 19.9682 18.9321 20.6913 19.3835 21.1367L24.0293 25.7181H21.5198C20.8364 25.7196 20.2857 26.23 20.2857 26.859C20.2857 27.4896 20.8364 27.9992 21.5198 27.9992H26.7644C27.4478 27.9992 27.9978 27.4903 28.0001 26.859C27.9978 26.8422 27.9955 26.8292 27.9932 26.8123C27.9955 26.7909 28.0001 26.768 28.0001 26.7458V21.6433H27.9994Z" fill="white" fill-opacity="0.6"/>
<path d="M12.9814 19.5229L8.3155 24.1303V21.6433C8.3155 20.9791 7.79422 20.4434 7.15736 20.4419C6.51818 20.4419 6.00155 20.9791 6.00155 21.6433L6 26.7466C6 26.7687 6.00621 26.7917 6.00776 26.8131C6.00621 26.8292 6.0031 26.8422 6.00155 26.8598C6.0031 27.4911 6.55386 28 7.23649 28H12.4819C13.1637 28 13.7152 27.4903 13.7152 26.8598C13.7152 26.2308 13.1637 25.7204 12.4819 25.7189H9.97243L14.6182 21.1375C15.0681 20.6921 15.0681 19.969 14.6182 19.5236C14.1659 19.0767 13.4344 19.0767 12.9814 19.5229Z" fill="white" fill-opacity="0.6"/>
<path d="M21.0172 15.4756L25.6854 10.8713V13.3582C25.6854 14.0202 26.2075 14.5558 26.8428 14.5581C27.4835 14.5581 27.9994 14.0202 27.9994 13.3582V8.25343C27.9994 8.23124 27.9947 8.20829 27.9924 8.18839C27.9947 8.17232 27.997 8.15702 27.9994 8.14095C27.997 7.50887 27.4471 7 26.7644 7H21.5198C20.8364 7 20.2857 7.50887 20.2857 8.14095C20.2857 8.76919 20.8364 9.28113 21.5198 9.28266H24.0293L19.3835 13.864C18.9321 14.3086 18.9321 15.0302 19.3835 15.4748C19.835 15.9233 20.5657 15.9233 21.0172 15.4756Z" fill="white" fill-opacity="0.6"/>
<path d="M9.97243 9.28266H12.4811C13.1629 9.28113 13.7145 8.76919 13.7145 8.14095C13.7145 7.50887 13.1629 7 12.4811 7H7.23649C6.55386 7 6.0031 7.50887 6.00155 8.14095C6.0031 8.15702 6.00621 8.17232 6.00776 8.18839C6.00621 8.20829 6 8.23048 6 8.25343L6.00155 13.359C6.00155 14.0209 6.51818 14.5589 7.15736 14.5589C7.79422 14.5566 8.3155 14.0209 8.3155 13.359V10.872L12.9814 15.4756C13.4344 15.9233 14.1659 15.9233 14.6182 15.4756C15.0681 15.031 15.0681 14.3094 14.6182 13.8648L9.97243 9.28266Z" fill="white" fill-opacity="0.6"/>
</svg>
