<svg width="51" height="52" viewBox="0 0 51 52" fill="none" xmlns="http://www.w3.org/2000/svg">
<rect width="51" height="52" fill="black" fill-opacity="0"/>
<rect width="51" height="52" fill="black" fill-opacity="0"/>
<rect width="51" height="52" fill="black" fill-opacity="0"/>
<path d="M20.4401 40.4411C25.0338 40.4411 29.2574 38.9467 32.6795 36.4153L47.8785 51.451C48.2484 51.817 48.7109 52 49.1733 52C49.6358 52 50.129 51.817 50.4682 51.451C51.1773 50.7495 51.1773 49.5906 50.4682 48.8587L35.4233 33.9449C38.7837 30.3461 40.8802 25.5273 40.8802 20.2205C40.8802 9.08853 31.7238 0 20.4401 0C9.15642 0 0 9.08853 0 20.2205C0 31.3526 9.15642 40.4411 20.4401 40.4411ZM20.4401 3.65983C29.6582 3.65983 37.1806 11.071 37.1806 20.2205C37.1806 29.3701 29.689 36.7813 20.4401 36.7813C11.222 36.7813 3.69956 29.3701 3.69956 20.2205C3.69956 11.071 11.1912 3.65983 20.4401 3.65983Z" fill="#EF7C00"/>
<path d="M12.9175 21.9895H18.7752V27.7842C18.7752 28.7906 19.6076 29.6141 20.6249 29.6141C21.6423 29.6141 22.4747 28.7906 22.4747 27.7842V21.9895H28.3323C29.3497 21.9895 30.1821 21.166 30.1821 20.1596C30.1821 19.1531 29.3497 18.3297 28.3323 18.3297H22.4748V12.535C22.4748 11.5285 21.6424 10.7051 20.625 10.7051C19.6077 10.7051 18.7753 11.5285 18.7753 12.535V18.3297H12.9177C11.9003 18.3297 11.0679 19.1531 11.0679 20.1596C11.0679 21.166 11.9002 21.9895 12.9175 21.9895Z" fill="#EF7C00"/>
</svg>
