<svg width="17" height="17" viewBox="0 0 17 17" fill="none" xmlns="http://www.w3.org/2000/svg">
<rect width="17" height="17" fill="black" fill-opacity="0"/>
<rect width="17" height="17" fill="black" fill-opacity="0"/>
<path d="M0 3.30443C0.0497005 3.16508 0.134191 3.05062 0.228622 2.94611C1.10832 1.9508 2.12221 1.12966 3.34484 0.57726C3.45916 0.527494 3.57844 0.482705 3.69275 0.432939C4.03568 0.283642 4.38358 0.308524 4.73149 0.408056C4.88556 0.452845 5.02472 0.522517 5.14897 0.622049C5.28316 0.726557 5.3776 0.860925 5.43227 1.02018C5.80005 2.10507 6.16783 3.18996 6.53065 4.27984C6.64496 4.61824 6.72448 4.96163 6.7046 5.31994C6.68969 5.57375 6.63005 5.81262 6.48095 6.02164C6.41137 6.12117 6.31196 6.21075 6.21256 6.28042C6.01376 6.41479 5.80502 6.52925 5.60125 6.65864C5.43724 6.75817 5.27819 6.86766 5.11418 6.97216C5.06448 7.00202 5.02472 7.04681 4.98496 7.08663C4.83586 7.22099 4.7961 7.38522 4.85077 7.57931C4.91538 7.80823 5.02472 8.00729 5.15394 8.20636C5.39748 8.5796 5.69071 8.91801 5.99885 9.24149C6.08334 9.32609 6.15789 9.42064 6.23244 9.51022C6.28214 9.56496 6.32687 9.62468 6.38155 9.67445C6.94813 10.2119 7.51472 10.7593 8.09124 11.2869C8.36957 11.5407 8.68268 11.7547 8.98585 11.9786C9.14986 12.098 9.33376 12.1627 9.5425 12.1777C9.67172 12.1876 9.78106 12.1528 9.86555 12.0582C9.96992 11.9487 10.0693 11.8293 10.1538 11.6999C10.293 11.4809 10.4172 11.257 10.5514 11.038C10.6061 10.9485 10.6707 10.8589 10.7353 10.7743C10.9391 10.4906 11.2323 10.3612 11.5653 10.3115C11.9132 10.2617 12.2512 10.3314 12.5842 10.416C13.4987 10.6548 14.4032 10.9186 15.2829 11.267C15.5761 11.3814 15.8594 11.5208 16.1477 11.6501C16.2521 11.6999 16.3316 11.7795 16.3863 11.8791C16.4857 12.0632 16.5851 12.2473 16.6248 12.4613C16.6795 12.745 16.6348 13.0187 16.5453 13.2874C16.4111 13.7154 16.2024 14.1086 15.9638 14.4868C15.4867 15.2482 14.935 15.9449 14.279 16.562C14.1398 16.6914 13.9808 16.8059 13.8267 16.9203C13.7472 16.9801 13.6577 17 13.5583 17C11.2373 16.985 9.09022 16.363 7.09723 15.1885C5.91933 14.4918 4.87065 13.6308 3.92634 12.6405C3.1858 11.8641 2.49994 11.043 1.94329 10.1273C1.20275 8.91303 0.636167 7.61912 0.303173 6.23065C0.188862 5.7529 0.104371 5.2652 0.0695807 4.77252C0.0397604 4.34951 0.0248503 3.9265 0.00497005 3.50349C0.00497005 3.47861 0 3.4587 0 3.43382C0 3.38405 0 3.34424 0 3.30443ZM12.9072 16.2037C13.0017 16.2037 13.0961 16.1987 13.1955 16.2037C13.4191 16.2187 13.608 16.144 13.7621 15.9897C13.9609 15.7907 14.1646 15.5916 14.3535 15.3826C14.9251 14.7506 15.3922 14.0489 15.7352 13.2675C15.7799 13.1581 15.8246 13.0486 15.8594 12.9391C15.8793 12.8794 15.8942 12.8097 15.8992 12.745C15.9191 12.5708 15.8495 12.4364 15.7153 12.327C15.5712 12.2125 15.4121 12.1428 15.2431 12.0732C14.443 11.7397 13.6179 11.476 12.773 11.2769C12.4649 11.2023 12.1567 11.1326 11.8436 11.0679C11.6349 11.0281 11.456 11.0928 11.3218 11.267C11.277 11.3267 11.2373 11.3814 11.1975 11.4411C11.0037 11.7447 10.8049 12.0483 10.621 12.3518C10.3924 12.7251 10.0494 12.8893 9.62699 12.9042C9.2443 12.9192 8.88645 12.8047 8.5634 12.6007C8.38448 12.4912 8.22046 12.3469 8.05148 12.2225C6.65987 11.1674 5.48694 9.89839 4.4482 8.49997C4.28915 8.28598 4.1649 8.05706 4.11023 7.7933C4.06053 7.56438 4.08041 7.34043 4.10029 7.11151C4.12514 6.8378 4.24939 6.6238 4.47305 6.46953C4.56748 6.40483 4.65694 6.34014 4.75634 6.28042C5.07939 6.0714 5.39748 5.86239 5.7255 5.65835C5.88951 5.55384 5.97897 5.4145 5.96406 5.22539C5.95412 5.10595 5.93424 4.98651 5.89448 4.87205C5.63604 4.03101 5.3776 3.19494 5.10921 2.35888C4.99987 2.01051 4.87065 1.66713 4.7464 1.32375C4.69173 1.17445 4.57742 1.07989 4.41838 1.05999C4.33388 1.05003 4.24442 1.05003 4.15993 1.06496C3.89652 1.10478 3.65299 1.21426 3.4194 1.33868C2.49 1.85126 1.67491 2.5032 0.95922 3.27954C0.924429 3.31936 0.889639 3.35917 0.864789 3.40396C0.834969 3.47363 0.800178 3.5433 0.800178 3.61795C0.780298 4.27984 0.825028 4.94172 0.95922 5.59365C1.09341 6.23563 1.29221 6.85273 1.52581 7.45987C1.78425 8.14166 2.07251 8.8135 2.44527 9.44055C3.20568 10.7096 4.12017 11.8492 5.23346 12.8246C5.54658 13.0983 5.84975 13.392 6.17777 13.6458C7.4849 14.6361 8.93118 15.3577 10.5017 15.8205C11.287 16.0544 12.0872 16.1987 12.9072 16.2037Z" fill="#EF7C00"/>
<path d="M8.7175 0.00497655C8.82187 0.0149297 8.92127 0.0248829 9.02565 0.0298595C9.21948 0.0398126 9.40834 0.0497658 9.60217 0.0597189C9.92522 0.0796253 10.2433 0.154274 10.5564 0.233899C11.5653 0.482728 12.5146 0.875878 13.3645 1.47804C14.8207 2.5082 15.8694 3.85187 16.4807 5.53396C16.6099 5.88232 16.7342 6.23068 16.7988 6.59894C16.8386 6.82787 16.8584 7.06177 16.8883 7.29069C16.9231 7.5644 16.9578 7.83314 16.9926 8.10685C17.0075 8.24122 17.0026 8.37558 16.9529 8.5C16.8932 8.65427 16.759 8.73887 16.5851 8.72892C16.3962 8.71897 16.2919 8.63934 16.2471 8.47014C16.2272 8.40047 16.2173 8.32582 16.2173 8.25117C16.2173 7.3305 16.0284 6.44467 15.6955 5.59368C15.268 4.49385 14.607 3.55825 13.7422 2.762C12.7134 1.81148 11.5156 1.19936 10.1439 0.920667C9.81588 0.855972 9.47295 0.836065 9.13996 0.791276C8.93618 0.766393 8.73241 0.75644 8.53361 0.716627C8.27517 0.661885 8.1708 0.37822 8.30996 0.149297C8.36463 0.059719 8.44912 0.0298594 8.54355 0.0149297C8.5684 0.00995312 8.59822 0.00497658 8.62307 0C8.65289 0.00497658 8.68768 0.00497655 8.7175 0.00497655Z" fill="#EF7C00"/>
<path d="M8.75712 2.36897C9.51754 2.3839 10.2581 2.50831 10.9588 2.81188C11.4658 3.03085 11.9429 3.30954 12.3703 3.6579C12.6586 3.8918 12.9469 4.14063 13.1854 4.43425C13.7421 5.12102 14.1745 5.87248 14.418 6.72845C14.5124 7.05691 14.6019 7.39034 14.6516 7.73372C14.6814 7.95767 14.7013 8.18161 14.6466 8.40556C14.6118 8.53993 14.5472 8.66434 14.4031 8.70913C14.2192 8.76885 14.0105 8.73401 13.9359 8.49514C13.8862 8.33091 13.8564 8.16171 13.8365 7.9925C13.7719 7.4401 13.6973 6.8877 13.4936 6.36516C13.1357 5.44449 12.5294 4.71294 11.7342 4.13068C11.103 3.66785 10.4022 3.35433 9.62688 3.21499C9.36346 3.16522 9.09011 3.15029 8.82173 3.12043C8.73724 3.11048 8.64778 3.1055 8.56329 3.08559C8.34957 3.04081 8.27005 2.95123 8.25017 2.73226C8.23029 2.53817 8.3943 2.36399 8.58814 2.36399C8.65275 2.36897 8.70245 2.36897 8.75712 2.36897Z" fill="#EF7C00"/>
<path d="M12.1272 8.291C12.1272 8.35072 12.1371 8.41044 12.1272 8.47016C12.1172 8.51992 12.1023 8.57964 12.0675 8.61945C11.9383 8.76875 11.66 8.77373 11.5159 8.64434C11.4214 8.55973 11.4065 8.4403 11.3966 8.32583C11.3668 7.98743 11.332 7.64404 11.1928 7.33052C10.7753 6.39492 10.0895 5.79276 9.05569 5.6335C8.87677 5.60365 8.69288 5.57876 8.51396 5.5489C8.49905 5.5489 8.48911 5.54393 8.4742 5.53895C8.26546 5.47923 8.17599 5.33491 8.21575 5.12092C8.25055 4.94176 8.36983 4.83725 8.56863 4.80739C8.80222 4.77256 9.03084 4.81237 9.2545 4.87209C9.71174 4.99153 10.1441 5.17068 10.5566 5.40458C10.7654 5.52402 10.9294 5.6982 11.0984 5.85745C11.6004 6.3352 11.9334 6.91746 12.0526 7.60423C12.0924 7.83315 12.1123 8.06208 12.1421 8.291C12.1322 8.291 12.1322 8.291 12.1272 8.291Z" fill="#EF7C00"/>
</svg>
